<?xml version="1.0" standalone="no"?>
<!DOCTYPE svg PUBLIC "-//W3C//DTD SVG 20010904//EN"
 "http://www.w3.org/TR/2001/REC-SVG-20010904/DTD/svg10.dtd">
<svg version="1.0" xmlns="http://www.w3.org/2000/svg"
 width="239.000000pt" height="239.000000pt" viewBox="0 0 239.000000 239.000000"
 preserveAspectRatio="xMidYMid meet">
<metadata>
Created by potrace 1.11, written by Peter Selinger 2001-2013
</metadata>
<g transform="translate(0.000000,239.000000) scale(0.100000,-0.100000)"
fill="#000000" stroke="none">
<path d="M1120 2378 c0 -5 -4 -7 -9 -3 -5 3 -16 -2 -25 -10 -8 -9 -18 -15 -21
-15 -3 0 -17 -11 -31 -25 -14 -14 -23 -25 -20 -25 3 0 -3 -15 -13 -34 -15 -26
-17 -37 -8 -46 9 -10 9 -11 -1 -5 -16 8 -13 -26 3 -37 6 -5 5 -8 -2 -8 -7 0
-13 -5 -13 -11 0 -5 5 -7 12 -3 6 4 8 3 4 -4 -7 -11 12 -62 27 -73 5 -3 9 -10
9 -14 0 -9 -28 -27 -38 -25 -4 1 -10 -3 -13 -9 -4 -6 -19 -12 -33 -13 -15 -1
-25 -5 -22 -9 2 -4 -6 -9 -17 -12 -12 -3 -18 -10 -15 -16 4 -7 -43 -10 -141
-10 -183 1 -176 2 -167 -13 6 -9 3 -9 -9 0 -14 12 -21 11 -46 -1 -16 -8 -33
-11 -38 -8 -10 9 -115 -44 -106 -53 4 -3 1 -6 -6 -6 -18 0 -101 -87 -101 -106
0 -8 -4 -13 -9 -10 -8 5 -26 -48 -22 -66 0 -5 -3 -8 -7 -8 -5 0 -9 -6 -10 -12
0 -7 -5 -40 -11 -72 -6 -32 -8 -63 -5 -67 3 -5 1 -9 -3 -9 -5 0 -6 -29 -3 -64
3 -35 2 -63 -1 -60 -4 2 -6 -7 -6 -21 0 -14 3 -22 8 -19 5 3 9 0 9 -5 0 -6 -4
-11 -10 -11 -5 0 -7 -7 -4 -15 6 -16 -7 -21 -20 -7 -11 10 -76 11 -76 0 0 -4
-5 -8 -11 -8 -5 0 -7 5 -3 12 5 7 3 8 -5 4 -7 -5 -10 -14 -7 -22 3 -8 1 -14
-4 -14 -14 0 -13 -575 1 -601 6 -12 17 -18 24 -15 8 3 17 2 19 -3 5 -7 26 -7
69 -2 5 1 5 6 1 13 -4 7 -3 8 5 4 7 -5 10 -23 6 -52 -3 -29 -2 -43 5 -39 5 3
10 1 10 -4 0 -6 -5 -11 -11 -11 -8 0 -9 -4 0 -13 6 -8 8 -16 5 -20 -9 -9 -4
-127 11 -212 4 -22 7 -47 7 -55 0 -8 8 -23 16 -32 8 -10 12 -18 8 -18 -4 0 -1
-10 6 -22 7 -13 11 -26 10 -30 -1 -4 6 -4 16 -1 9 3 14 3 10 -1 -6 -8 57 -79
66 -74 2 2 14 -8 26 -22 12 -14 19 -19 15 -13 -3 8 6 6 24 -4 16 -10 28 -20
26 -23 -2 -3 5 -7 16 -8 10 -1 28 -3 39 -4 11 -1 20 -5 20 -9 0 -4 8 -5 19 -2
10 3 22 0 26 -7 5 -8 11 -7 23 2 12 10 14 10 8 1 -5 -10 4 -13 36 -13 24 0 49
-5 56 -12 8 -8 12 -9 12 -1 0 6 8 10 18 8 9 -2 17 -4 17 -5 0 -1 11 -3 25 -6
19 -3 21 -2 10 6 -9 6 -10 10 -3 10 6 0 15 -5 18 -10 5 -8 11 -7 21 1 11 9 14
9 14 0 0 -9 5 -9 20 -1 15 8 20 8 20 -1 0 -8 4 -8 15 1 9 7 18 10 22 6 3 -3 0
-6 -7 -6 -7 0 -10 -3 -7 -6 4 -4 13 -1 22 6 11 9 15 9 15 1 0 -7 5 -9 13 -4
20 12 45 14 52 2 5 -7 11 -6 21 2 11 9 14 9 14 0 0 -9 5 -9 20 -1 15 8 20 8
20 -1 0 -8 4 -8 15 1 12 10 19 10 27 2 8 -8 15 -9 25 -1 9 9 13 8 13 0 0 -9 5
-9 20 -1 15 8 20 8 20 -2 0 -9 3 -9 12 0 7 7 17 12 23 12 5 0 3 -5 -5 -10 -9
-6 -10 -10 -3 -10 6 0 15 5 19 11 4 8 9 7 15 -2 8 -12 10 -12 18 0 6 9 11 10
15 2 4 -6 13 -11 19 -11 7 0 6 4 -3 10 -9 6 -10 10 -3 10 6 0 15 -5 18 -10 5
-8 11 -7 21 1 11 9 14 9 14 0 0 -9 5 -9 20 -1 15 8 20 8 20 -1 0 -8 4 -8 15 1
11 9 19 10 28 1 10 -8 17 -7 25 1 9 9 12 9 12 0 0 -10 5 -10 20 -2 15 8 20 8
20 -2 0 -9 3 -9 12 0 7 7 17 12 23 12 5 0 3 -5 -5 -10 -9 -6 -10 -10 -3 -10 6
0 15 5 19 11 4 8 9 7 15 -2 8 -12 11 -11 19 1 9 13 10 13 10 0 0 -13 1 -13 10
0 6 9 13 11 18 5 9 -12 44 -16 36 -4 -3 5 2 9 11 9 9 0 14 -4 11 -8 -3 -5 1
-9 9 -9 8 0 12 4 9 9 -3 4 14 8 38 8 24 0 49 5 56 12 9 9 12 9 12 -1 0 -9 4
-10 13 -4 6 6 28 13 47 17 20 3 52 15 72 25 20 11 39 17 42 14 3 -4 6 -1 6 5
0 7 7 12 16 12 8 0 13 4 10 9 -3 5 4 11 15 14 12 3 18 10 14 16 -3 6 -1 11 5
11 17 0 69 58 76 85 3 14 11 25 16 25 6 0 8 9 5 20 -3 10 0 21 6 23 14 4 17
47 3 47 -6 0 -5 4 2 9 9 5 14 36 15 99 1 51 6 92 12 92 5 0 4 5 -2 11 -7 7 -8
21 -3 39 5 18 4 32 -3 39 -6 6 -7 11 -1 11 11 0 11 39 0 61 -4 7 1 5 11 -6 17
-20 25 -21 110 -13 7 1 10 5 7 10 -3 4 -1 8 5 8 6 0 8 6 5 14 -3 8 0 17 6 21
8 5 8 11 -1 21 -7 8 -7 14 -1 14 5 0 10 11 10 25 0 14 -5 22 -11 18 -6 -4 -7
-1 -1 8 13 20 12 69 0 69 -7 0 -8 3 -1 8 6 4 12 20 13 36 3 21 1 26 -10 20
-10 -6 -10 -4 1 9 10 13 11 20 2 31 -7 8 -8 17 -3 20 5 3 10 17 10 31 0 14 -5
22 -11 18 -6 -4 -7 -1 -2 8 14 21 15 89 2 89 -8 0 -9 3 -2 8 16 10 17 54 2 46
-8 -5 -8 -3 1 7 16 17 16 32 0 23 -10 -6 -10 -4 0 8 10 13 10 17 0 21 -10 4
-10 6 0 6 10 1 10 5 -2 17 -9 8 -14 20 -11 25 4 5 -2 9 -12 10 -94 6 -104 5
-99 -6 2 -6 -2 -12 -9 -12 -12 0 -12 38 1 59 3 4 0 8 -6 8 -6 0 -8 5 -3 13 10
16 13 37 5 37 -4 0 -8 43 -8 95 -1 63 -7 101 -15 112 -8 10 -9 14 -2 10 6 -4
3 15 -9 45 -11 29 -20 59 -21 66 0 6 -6 12 -14 12 -7 0 -13 7 -13 15 0 19 -53
73 -110 111 -40 27 -60 36 -120 51 -34 8 -110 14 -190 13 -152 -1 -185 2 -197
14 -5 5 -2 6 6 1 9 -5 12 -4 7 3 -4 7 -14 12 -22 12 -8 0 -13 4 -10 8 2 4 -7
9 -22 10 -14 1 -28 6 -31 11 -3 4 -19 11 -35 15 -27 7 -28 8 -11 26 10 11 14
20 10 20 -4 0 0 10 11 22 10 12 13 18 5 13 -10 -6 -12 -4 -5 6 18 30 21 119 3
130 -6 3 -10 10 -10 15 2 22 -12 44 -26 44 -9 0 -14 3 -10 6 8 9 -11 26 -48
43 -34 16 -175 24 -175 9z"/>
</g>
</svg>
